<?xml version="1.0" encoding="utf-8"?>
<svg xmlns="http://www.w3.org/2000/svg" width="1000" height="1000" viewBox="0 0 660 660" role="img" aria-label="QR code for https://ajfisher.me/aieng26/" shape-rendering="crispEdges">
<rect x="0" y="0" width="660" height="660" fill="transparent"/>
<rect x="81" y="81" width="18" height="18" fill="#ff825e"/>
<rect x="101" y="81" width="18" height="18" fill="#ff825e"/>
<rect x="121" y="81" width="18" height="18" fill="#ff825e"/>
<rect x="141" y="81" width="18" height="18" fill="#ff825e"/>
<rect x="161" y="81" width="18" height="18" fill="#ff825e"/>
<rect x="181" y="81" width="18" height="18" fill="#ff825e"/>
<rect x="201" y="81" width="18" height="18" fill="#ff825e"/>
<rect x="241" y="81" width="18" height="18" fill="#ff825e"/>
<rect x="261" y="81" width="18" height="18" fill="#ff825e"/>
<rect x="281" y="81" width="18" height="18" fill="#ff825e"/>
<rect x="301" y="81" width="18" height="18" fill="#ff825e"/>
<rect x="361" y="81" width="18" height="18" fill="#ff825e"/>
<rect x="441" y="81" width="18" height="18" fill="#ff825e"/>
<rect x="461" y="81" width="18" height="18" fill="#ff825e"/>
<rect x="481" y="81" width="18" height="18" fill="#ff825e"/>
<rect x="501" y="81" width="18" height="18" fill="#ff825e"/>
<rect x="521" y="81" width="18" height="18" fill="#ff825e"/>
<rect x="541" y="81" width="18" height="18" fill="#ff825e"/>
<rect x="561" y="81" width="18" height="18" fill="#ff825e"/>
<rect x="81" y="101" width="18" height="18" fill="#ff825e"/>
<rect x="201" y="101" width="18" height="18" fill="#ff825e"/>
<rect x="301" y="101" width="18" height="18" fill="#ff825e"/>
<rect x="321" y="101" width="18" height="18" fill="#ff825e"/>
<rect x="341" y="101" width="18" height="18" fill="#ff825e"/>
<rect x="441" y="101" width="18" height="18" fill="#ff825e"/>
<rect x="561" y="101" width="18" height="18" fill="#ff825e"/>
<rect x="81" y="121" width="18" height="18" fill="#ff825e"/>
<rect x="121" y="121" width="18" height="18" fill="#ff825e"/>
<rect x="141" y="121" width="18" height="18" fill="#ff825e"/>
<rect x="161" y="121" width="18" height="18" fill="#ff825e"/>
<rect x="201" y="121" width="18" height="18" fill="#ff825e"/>
<rect x="261" y="121" width="18" height="18" fill="#ff825e"/>
<rect x="301" y="121" width="18" height="18" fill="#ff825e"/>
<rect x="341" y="121" width="18" height="18" fill="#ff825e"/>
<rect x="361" y="121" width="18" height="18" fill="#ff825e"/>
<rect x="441" y="121" width="18" height="18" fill="#ff825e"/>
<rect x="481" y="121" width="18" height="18" fill="#ff825e"/>
<rect x="501" y="121" width="18" height="18" fill="#ff825e"/>
<rect x="521" y="121" width="18" height="18" fill="#ff825e"/>
<rect x="561" y="121" width="18" height="18" fill="#ff825e"/>
<rect x="81" y="141" width="18" height="18" fill="#ff825e"/>
<rect x="121" y="141" width="18" height="18" fill="#ff825e"/>
<rect x="141" y="141" width="18" height="18" fill="#ff825e"/>
<rect x="161" y="141" width="18" height="18" fill="#ff825e"/>
<rect x="201" y="141" width="18" height="18" fill="#ff825e"/>
<rect x="281" y="141" width="18" height="18" fill="#ff825e"/>
<rect x="301" y="141" width="18" height="18" fill="#ff825e"/>
<rect x="321" y="141" width="18" height="18" fill="#ff825e"/>
<rect x="341" y="141" width="18" height="18" fill="#ff825e"/>
<rect x="381" y="141" width="18" height="18" fill="#ff825e"/>
<rect x="401" y="141" width="18" height="18" fill="#ff825e"/>
<rect x="441" y="141" width="18" height="18" fill="#ff825e"/>
<rect x="481" y="141" width="18" height="18" fill="#ff825e"/>
<rect x="501" y="141" width="18" height="18" fill="#ff825e"/>
<rect x="521" y="141" width="18" height="18" fill="#ff825e"/>
<rect x="561" y="141" width="18" height="18" fill="#ff825e"/>
<rect x="81" y="161" width="18" height="18" fill="#ff825e"/>
<rect x="121" y="161" width="18" height="18" fill="#ff825e"/>
<rect x="141" y="161" width="18" height="18" fill="#ff825e"/>
<rect x="161" y="161" width="18" height="18" fill="#ff825e"/>
<rect x="201" y="161" width="18" height="18" fill="#ff825e"/>
<rect x="281" y="161" width="18" height="18" fill="#ff825e"/>
<rect x="301" y="161" width="18" height="18" fill="#ff825e"/>
<rect x="321" y="161" width="18" height="18" fill="#ff825e"/>
<rect x="361" y="161" width="18" height="18" fill="#ff825e"/>
<rect x="441" y="161" width="18" height="18" fill="#ff825e"/>
<rect x="481" y="161" width="18" height="18" fill="#ff825e"/>
<rect x="501" y="161" width="18" height="18" fill="#ff825e"/>
<rect x="521" y="161" width="18" height="18" fill="#ff825e"/>
<rect x="561" y="161" width="18" height="18" fill="#ff825e"/>
<rect x="81" y="181" width="18" height="18" fill="#ff825e"/>
<rect x="201" y="181" width="18" height="18" fill="#ff825e"/>
<rect x="261" y="181" width="18" height="18" fill="#ff825e"/>
<rect x="301" y="181" width="18" height="18" fill="#ff825e"/>
<rect x="361" y="181" width="18" height="18" fill="#ff825e"/>
<rect x="401" y="181" width="18" height="18" fill="#ff825e"/>
<rect x="441" y="181" width="18" height="18" fill="#ff825e"/>
<rect x="561" y="181" width="18" height="18" fill="#ff825e"/>
<rect x="81" y="201" width="18" height="18" fill="#ff825e"/>
<rect x="101" y="201" width="18" height="18" fill="#ff825e"/>
<rect x="121" y="201" width="18" height="18" fill="#ff825e"/>
<rect x="141" y="201" width="18" height="18" fill="#ff825e"/>
<rect x="161" y="201" width="18" height="18" fill="#ff825e"/>
<rect x="181" y="201" width="18" height="18" fill="#ff825e"/>
<rect x="201" y="201" width="18" height="18" fill="#ff825e"/>
<rect x="241" y="201" width="18" height="18" fill="#ff825e"/>
<rect x="281" y="201" width="18" height="18" fill="#ff825e"/>
<rect x="321" y="201" width="18" height="18" fill="#ff825e"/>
<rect x="361" y="201" width="18" height="18" fill="#ff825e"/>
<rect x="401" y="201" width="18" height="18" fill="#ff825e"/>
<rect x="441" y="201" width="18" height="18" fill="#ff825e"/>
<rect x="461" y="201" width="18" height="18" fill="#ff825e"/>
<rect x="481" y="201" width="18" height="18" fill="#ff825e"/>
<rect x="501" y="201" width="18" height="18" fill="#ff825e"/>
<rect x="521" y="201" width="18" height="18" fill="#ff825e"/>
<rect x="541" y="201" width="18" height="18" fill="#ff825e"/>
<rect x="561" y="201" width="18" height="18" fill="#ff825e"/>
<rect x="241" y="221" width="18" height="18" fill="#ff825e"/>
<rect x="261" y="221" width="18" height="18" fill="#ff825e"/>
<rect x="301" y="221" width="18" height="18" fill="#ff825e"/>
<rect x="341" y="221" width="18" height="18" fill="#ff825e"/>
<rect x="381" y="221" width="18" height="18" fill="#ff825e"/>
<rect x="81" y="241" width="18" height="18" fill="#ff825e"/>
<rect x="101" y="241" width="18" height="18" fill="#ff825e"/>
<rect x="141" y="241" width="18" height="18" fill="#ff825e"/>
<rect x="161" y="241" width="18" height="18" fill="#ff825e"/>
<rect x="201" y="241" width="18" height="18" fill="#ff825e"/>
<rect x="261" y="241" width="18" height="18" fill="#ff825e"/>
<rect x="301" y="241" width="18" height="18" fill="#ff825e"/>
<rect x="321" y="241" width="18" height="18" fill="#ff825e"/>
<rect x="381" y="241" width="18" height="18" fill="#ff825e"/>
<rect x="441" y="241" width="18" height="18" fill="#ff825e"/>
<rect x="561" y="241" width="18" height="18" fill="#ff825e"/>
<rect x="121" y="261" width="18" height="18" fill="#ff825e"/>
<rect x="181" y="261" width="18" height="18" fill="#ff825e"/>
<rect x="241" y="261" width="18" height="18" fill="#ff825e"/>
<rect x="281" y="261" width="18" height="18" fill="#ff825e"/>
<rect x="301" y="261" width="18" height="18" fill="#ff825e"/>
<rect x="321" y="261" width="18" height="18" fill="#ff825e"/>
<rect x="341" y="261" width="18" height="18" fill="#ff825e"/>
<rect x="361" y="261" width="18" height="18" fill="#ff825e"/>
<rect x="381" y="261" width="18" height="18" fill="#ff825e"/>
<rect x="461" y="261" width="18" height="18" fill="#ff825e"/>
<rect x="481" y="261" width="18" height="18" fill="#ff825e"/>
<rect x="501" y="261" width="18" height="18" fill="#ff825e"/>
<rect x="521" y="261" width="18" height="18" fill="#ff825e"/>
<rect x="541" y="261" width="18" height="18" fill="#ff825e"/>
<rect x="81" y="281" width="18" height="18" fill="#ff825e"/>
<rect x="101" y="281" width="18" height="18" fill="#ff825e"/>
<rect x="201" y="281" width="18" height="18" fill="#ff825e"/>
<rect x="221" y="281" width="18" height="18" fill="#ff825e"/>
<rect x="261" y="281" width="18" height="18" fill="#ff825e"/>
<rect x="301" y="281" width="18" height="18" fill="#ff825e"/>
<rect x="321" y="281" width="18" height="18" fill="#ff825e"/>
<rect x="341" y="281" width="18" height="18" fill="#ff825e"/>
<rect x="381" y="281" width="18" height="18" fill="#ff825e"/>
<rect x="401" y="281" width="18" height="18" fill="#ff825e"/>
<rect x="421" y="281" width="18" height="18" fill="#ff825e"/>
<rect x="461" y="281" width="18" height="18" fill="#ff825e"/>
<rect x="481" y="281" width="18" height="18" fill="#ff825e"/>
<rect x="501" y="281" width="18" height="18" fill="#ff825e"/>
<rect x="561" y="281" width="18" height="18" fill="#ff825e"/>
<rect x="81" y="301" width="18" height="18" fill="#ff825e"/>
<rect x="101" y="301" width="18" height="18" fill="#ff825e"/>
<rect x="141" y="301" width="18" height="18" fill="#ff825e"/>
<rect x="161" y="301" width="18" height="18" fill="#ff825e"/>
<rect x="181" y="301" width="18" height="18" fill="#ff825e"/>
<rect x="221" y="301" width="18" height="18" fill="#ff825e"/>
<rect x="241" y="301" width="18" height="18" fill="#ff825e"/>
<rect x="361" y="301" width="18" height="18" fill="#ff825e"/>
<rect x="421" y="301" width="18" height="18" fill="#ff825e"/>
<rect x="501" y="301" width="18" height="18" fill="#ff825e"/>
<rect x="521" y="301" width="18" height="18" fill="#ff825e"/>
<rect x="541" y="301" width="18" height="18" fill="#ff825e"/>
<rect x="561" y="301" width="18" height="18" fill="#ff825e"/>
<rect x="101" y="321" width="18" height="18" fill="#ff825e"/>
<rect x="121" y="321" width="18" height="18" fill="#ff825e"/>
<rect x="141" y="321" width="18" height="18" fill="#ff825e"/>
<rect x="201" y="321" width="18" height="18" fill="#ff825e"/>
<rect x="221" y="321" width="18" height="18" fill="#ff825e"/>
<rect x="241" y="321" width="18" height="18" fill="#ff825e"/>
<rect x="261" y="321" width="18" height="18" fill="#ff825e"/>
<rect x="281" y="321" width="18" height="18" fill="#ff825e"/>
<rect x="301" y="321" width="18" height="18" fill="#ff825e"/>
<rect x="381" y="321" width="18" height="18" fill="#ff825e"/>
<rect x="401" y="321" width="18" height="18" fill="#ff825e"/>
<rect x="441" y="321" width="18" height="18" fill="#ff825e"/>
<rect x="461" y="321" width="18" height="18" fill="#ff825e"/>
<rect x="561" y="321" width="18" height="18" fill="#ff825e"/>
<rect x="81" y="341" width="18" height="18" fill="#ff825e"/>
<rect x="121" y="341" width="18" height="18" fill="#ff825e"/>
<rect x="161" y="341" width="18" height="18" fill="#ff825e"/>
<rect x="221" y="341" width="18" height="18" fill="#ff825e"/>
<rect x="261" y="341" width="18" height="18" fill="#ff825e"/>
<rect x="281" y="341" width="18" height="18" fill="#ff825e"/>
<rect x="301" y="341" width="18" height="18" fill="#ff825e"/>
<rect x="321" y="341" width="18" height="18" fill="#ff825e"/>
<rect x="341" y="341" width="18" height="18" fill="#ff825e"/>
<rect x="361" y="341" width="18" height="18" fill="#ff825e"/>
<rect x="381" y="341" width="18" height="18" fill="#ff825e"/>
<rect x="401" y="341" width="18" height="18" fill="#ff825e"/>
<rect x="481" y="341" width="18" height="18" fill="#ff825e"/>
<rect x="541" y="341" width="18" height="18" fill="#ff825e"/>
<rect x="81" y="361" width="18" height="18" fill="#ff825e"/>
<rect x="101" y="361" width="18" height="18" fill="#ff825e"/>
<rect x="141" y="361" width="18" height="18" fill="#ff825e"/>
<rect x="181" y="361" width="18" height="18" fill="#ff825e"/>
<rect x="201" y="361" width="18" height="18" fill="#ff825e"/>
<rect x="241" y="361" width="18" height="18" fill="#ff825e"/>
<rect x="261" y="361" width="18" height="18" fill="#ff825e"/>
<rect x="321" y="361" width="18" height="18" fill="#ff825e"/>
<rect x="341" y="361" width="18" height="18" fill="#ff825e"/>
<rect x="381" y="361" width="18" height="18" fill="#ff825e"/>
<rect x="401" y="361" width="18" height="18" fill="#ff825e"/>
<rect x="421" y="361" width="18" height="18" fill="#ff825e"/>
<rect x="441" y="361" width="18" height="18" fill="#ff825e"/>
<rect x="481" y="361" width="18" height="18" fill="#ff825e"/>
<rect x="501" y="361" width="18" height="18" fill="#ff825e"/>
<rect x="521" y="361" width="18" height="18" fill="#ff825e"/>
<rect x="541" y="361" width="18" height="18" fill="#ff825e"/>
<rect x="561" y="361" width="18" height="18" fill="#ff825e"/>
<rect x="81" y="381" width="18" height="18" fill="#ff825e"/>
<rect x="181" y="381" width="18" height="18" fill="#ff825e"/>
<rect x="221" y="381" width="18" height="18" fill="#ff825e"/>
<rect x="261" y="381" width="18" height="18" fill="#ff825e"/>
<rect x="301" y="381" width="18" height="18" fill="#ff825e"/>
<rect x="321" y="381" width="18" height="18" fill="#ff825e"/>
<rect x="401" y="381" width="18" height="18" fill="#ff825e"/>
<rect x="461" y="381" width="18" height="18" fill="#ff825e"/>
<rect x="501" y="381" width="18" height="18" fill="#ff825e"/>
<rect x="521" y="381" width="18" height="18" fill="#ff825e"/>
<rect x="561" y="381" width="18" height="18" fill="#ff825e"/>
<rect x="81" y="401" width="18" height="18" fill="#ff825e"/>
<rect x="121" y="401" width="18" height="18" fill="#ff825e"/>
<rect x="141" y="401" width="18" height="18" fill="#ff825e"/>
<rect x="161" y="401" width="18" height="18" fill="#ff825e"/>
<rect x="201" y="401" width="18" height="18" fill="#ff825e"/>
<rect x="241" y="401" width="18" height="18" fill="#ff825e"/>
<rect x="281" y="401" width="18" height="18" fill="#ff825e"/>
<rect x="301" y="401" width="18" height="18" fill="#ff825e"/>
<rect x="341" y="401" width="18" height="18" fill="#ff825e"/>
<rect x="401" y="401" width="18" height="18" fill="#ff825e"/>
<rect x="421" y="401" width="18" height="18" fill="#ff825e"/>
<rect x="441" y="401" width="18" height="18" fill="#ff825e"/>
<rect x="461" y="401" width="18" height="18" fill="#ff825e"/>
<rect x="481" y="401" width="18" height="18" fill="#ff825e"/>
<rect x="521" y="401" width="18" height="18" fill="#ff825e"/>
<rect x="541" y="401" width="18" height="18" fill="#ff825e"/>
<rect x="241" y="421" width="18" height="18" fill="#ff825e"/>
<rect x="281" y="421" width="18" height="18" fill="#ff825e"/>
<rect x="321" y="421" width="18" height="18" fill="#ff825e"/>
<rect x="341" y="421" width="18" height="18" fill="#ff825e"/>
<rect x="401" y="421" width="18" height="18" fill="#ff825e"/>
<rect x="481" y="421" width="18" height="18" fill="#ff825e"/>
<rect x="521" y="421" width="18" height="18" fill="#ff825e"/>
<rect x="541" y="421" width="18" height="18" fill="#ff825e"/>
<rect x="81" y="441" width="18" height="18" fill="#ff825e"/>
<rect x="101" y="441" width="18" height="18" fill="#ff825e"/>
<rect x="121" y="441" width="18" height="18" fill="#ff825e"/>
<rect x="141" y="441" width="18" height="18" fill="#ff825e"/>
<rect x="161" y="441" width="18" height="18" fill="#ff825e"/>
<rect x="181" y="441" width="18" height="18" fill="#ff825e"/>
<rect x="201" y="441" width="18" height="18" fill="#ff825e"/>
<rect x="281" y="441" width="18" height="18" fill="#ff825e"/>
<rect x="301" y="441" width="18" height="18" fill="#ff825e"/>
<rect x="341" y="441" width="18" height="18" fill="#ff825e"/>
<rect x="361" y="441" width="18" height="18" fill="#ff825e"/>
<rect x="401" y="441" width="18" height="18" fill="#ff825e"/>
<rect x="441" y="441" width="18" height="18" fill="#ff825e"/>
<rect x="481" y="441" width="18" height="18" fill="#ff825e"/>
<rect x="561" y="441" width="18" height="18" fill="#ff825e"/>
<rect x="81" y="461" width="18" height="18" fill="#ff825e"/>
<rect x="201" y="461" width="18" height="18" fill="#ff825e"/>
<rect x="281" y="461" width="18" height="18" fill="#ff825e"/>
<rect x="301" y="461" width="18" height="18" fill="#ff825e"/>
<rect x="341" y="461" width="18" height="18" fill="#ff825e"/>
<rect x="381" y="461" width="18" height="18" fill="#ff825e"/>
<rect x="401" y="461" width="18" height="18" fill="#ff825e"/>
<rect x="481" y="461" width="18" height="18" fill="#ff825e"/>
<rect x="561" y="461" width="18" height="18" fill="#ff825e"/>
<rect x="81" y="481" width="18" height="18" fill="#ff825e"/>
<rect x="121" y="481" width="18" height="18" fill="#ff825e"/>
<rect x="141" y="481" width="18" height="18" fill="#ff825e"/>
<rect x="161" y="481" width="18" height="18" fill="#ff825e"/>
<rect x="201" y="481" width="18" height="18" fill="#ff825e"/>
<rect x="241" y="481" width="18" height="18" fill="#ff825e"/>
<rect x="281" y="481" width="18" height="18" fill="#ff825e"/>
<rect x="321" y="481" width="18" height="18" fill="#ff825e"/>
<rect x="361" y="481" width="18" height="18" fill="#ff825e"/>
<rect x="381" y="481" width="18" height="18" fill="#ff825e"/>
<rect x="401" y="481" width="18" height="18" fill="#ff825e"/>
<rect x="421" y="481" width="18" height="18" fill="#ff825e"/>
<rect x="441" y="481" width="18" height="18" fill="#ff825e"/>
<rect x="461" y="481" width="18" height="18" fill="#ff825e"/>
<rect x="481" y="481" width="18" height="18" fill="#ff825e"/>
<rect x="541" y="481" width="18" height="18" fill="#ff825e"/>
<rect x="81" y="501" width="18" height="18" fill="#ff825e"/>
<rect x="121" y="501" width="18" height="18" fill="#ff825e"/>
<rect x="141" y="501" width="18" height="18" fill="#ff825e"/>
<rect x="161" y="501" width="18" height="18" fill="#ff825e"/>
<rect x="201" y="501" width="18" height="18" fill="#ff825e"/>
<rect x="241" y="501" width="18" height="18" fill="#ff825e"/>
<rect x="281" y="501" width="18" height="18" fill="#ff825e"/>
<rect x="301" y="501" width="18" height="18" fill="#ff825e"/>
<rect x="361" y="501" width="18" height="18" fill="#ff825e"/>
<rect x="381" y="501" width="18" height="18" fill="#ff825e"/>
<rect x="421" y="501" width="18" height="18" fill="#ff825e"/>
<rect x="441" y="501" width="18" height="18" fill="#ff825e"/>
<rect x="541" y="501" width="18" height="18" fill="#ff825e"/>
<rect x="561" y="501" width="18" height="18" fill="#ff825e"/>
<rect x="81" y="521" width="18" height="18" fill="#ff825e"/>
<rect x="121" y="521" width="18" height="18" fill="#ff825e"/>
<rect x="141" y="521" width="18" height="18" fill="#ff825e"/>
<rect x="161" y="521" width="18" height="18" fill="#ff825e"/>
<rect x="201" y="521" width="18" height="18" fill="#ff825e"/>
<rect x="261" y="521" width="18" height="18" fill="#ff825e"/>
<rect x="301" y="521" width="18" height="18" fill="#ff825e"/>
<rect x="321" y="521" width="18" height="18" fill="#ff825e"/>
<rect x="381" y="521" width="18" height="18" fill="#ff825e"/>
<rect x="421" y="521" width="18" height="18" fill="#ff825e"/>
<rect x="481" y="521" width="18" height="18" fill="#ff825e"/>
<rect x="501" y="521" width="18" height="18" fill="#ff825e"/>
<rect x="521" y="521" width="18" height="18" fill="#ff825e"/>
<rect x="541" y="521" width="18" height="18" fill="#ff825e"/>
<rect x="561" y="521" width="18" height="18" fill="#ff825e"/>
<rect x="81" y="541" width="18" height="18" fill="#ff825e"/>
<rect x="201" y="541" width="18" height="18" fill="#ff825e"/>
<rect x="241" y="541" width="18" height="18" fill="#ff825e"/>
<rect x="261" y="541" width="18" height="18" fill="#ff825e"/>
<rect x="281" y="541" width="18" height="18" fill="#ff825e"/>
<rect x="361" y="541" width="18" height="18" fill="#ff825e"/>
<rect x="381" y="541" width="18" height="18" fill="#ff825e"/>
<rect x="421" y="541" width="18" height="18" fill="#ff825e"/>
<rect x="461" y="541" width="18" height="18" fill="#ff825e"/>
<rect x="481" y="541" width="18" height="18" fill="#ff825e"/>
<rect x="521" y="541" width="18" height="18" fill="#ff825e"/>
<rect x="541" y="541" width="18" height="18" fill="#ff825e"/>
<rect x="561" y="541" width="18" height="18" fill="#ff825e"/>
<rect x="81" y="561" width="18" height="18" fill="#ff825e"/>
<rect x="101" y="561" width="18" height="18" fill="#ff825e"/>
<rect x="121" y="561" width="18" height="18" fill="#ff825e"/>
<rect x="141" y="561" width="18" height="18" fill="#ff825e"/>
<rect x="161" y="561" width="18" height="18" fill="#ff825e"/>
<rect x="181" y="561" width="18" height="18" fill="#ff825e"/>
<rect x="201" y="561" width="18" height="18" fill="#ff825e"/>
<rect x="241" y="561" width="18" height="18" fill="#ff825e"/>
<rect x="281" y="561" width="18" height="18" fill="#ff825e"/>
<rect x="321" y="561" width="18" height="18" fill="#ff825e"/>
<rect x="401" y="561" width="18" height="18" fill="#ff825e"/>
<rect x="441" y="561" width="18" height="18" fill="#ff825e"/>
<rect x="501" y="561" width="18" height="18" fill="#ff825e"/>
<rect x="561" y="561" width="18" height="18" fill="#ff825e"/>
</svg>
