<?xml version="1.0" standalone="no"?>
<!DOCTYPE svg PUBLIC "-//W3C//DTD SVG 20010904//EN"
 "http://www.w3.org/TR/2001/REC-SVG-20010904/DTD/svg10.dtd">
<svg version="1.0" xmlns="http://www.w3.org/2000/svg"
 width="400.000000pt" height="400.000000pt" viewBox="0 0 400.000000 400.000000"
 preserveAspectRatio="xMidYMid meet">
<metadata>
Created by potrace 1.11, written by Peter Selinger 2001-2013
</metadata>
<g transform="translate(0.000000,400.000000) scale(0.100000,-0.100000)"
fill="#000000" stroke="none">
<path d="M1513 3953 c-1 -27 3 -55 8 -63 5 -10 8 7 9 48 0 34 -4 62 -8 62 -5
0 -9 -21 -9 -47z"/>
<path d="M1539 3929 c-1 -107 -4 -151 -13 -174 -6 -16 -6 -17 3 -5 9 13 11 11
11 -7 0 -12 4 -24 9 -27 10 -6 7 271 -3 281 -3 3 -6 -27 -7 -68z"/>
<path d="M1987 3952 c-9 -26 -19 -64 -23 -84 -6 -35 -8 -37 -28 -27 -20 11
-20 11 2 -10 25 -24 27 -37 12 -77 -13 -32 2 -46 37 -37 14 3 23 1 23 -6 0 -6
-9 -11 -20 -11 -25 0 -25 0 5 -62 14 -28 23 -53 21 -56 -7 -7 27 -41 36 -36 4
3 13 -8 20 -23 6 -15 17 -35 23 -43 6 -8 17 -35 24 -60 7 -25 42 -124 78 -220
35 -96 80 -218 99 -270 38 -103 76 -149 141 -171 19 -6 32 -13 30 -15 -2 -3
-16 0 -30 5 -21 8 -25 7 -20 -4 3 -8 14 -15 24 -15 12 0 21 -10 25 -26 5 -19
9 -22 15 -12 7 10 9 9 9 -4 0 -26 -87 -106 -141 -129 -26 -12 -57 -32 -70 -45
-12 -13 -33 -24 -46 -24 -14 0 -23 -6 -23 -15 0 -8 -5 -15 -11 -15 -6 0 -9 6
-6 13 2 6 -5 20 -16 30 -16 14 -22 15 -29 5 -6 -10 -10 -10 -18 2 -5 8 -10 21
-10 28 0 7 -4 11 -9 8 -5 -3 -11 1 -15 9 -3 8 0 15 7 15 9 0 9 2 0 8 -9 6 -8
12 6 24 11 9 23 13 27 10 5 -4 3 0 -4 9 -6 9 -8 20 -4 25 4 4 -1 2 -11 -5 -9
-8 -20 -11 -24 -7 -3 3 -15 -2 -26 -11 -19 -17 -19 -17 -12 7 4 14 10 31 12
38 3 6 0 12 -6 12 -6 0 -11 -8 -11 -17 0 -22 -17 -5 -22 22 -2 11 -10 19 -17
17 -9 -2 -11 3 -7 13 5 13 2 14 -16 4 -19 -10 -20 -9 -15 10 6 23 -14 25 -26
1 -4 -8 -5 3 -1 25 5 38 5 39 -11 20 -16 -20 -16 -20 -10 3 5 16 2 22 -10 22
-12 0 -15 5 -9 23 4 12 12 25 18 29 7 5 5 8 -6 8 -18 0 -26 -18 -30 -65 -3
-48 75 -232 110 -257 18 -13 23 -50 10 -64 -5 -4 -8 -3 -8 2 0 5 -14 9 -31 10
-20 1 -42 13 -65 35 -49 47 -71 85 -104 181 -16 46 -29 75 -29 65 -1 -10 3
-27 9 -37 5 -10 11 -34 12 -53 2 -20 5 -34 6 -32 2 2 16 -19 31 -47 24 -46 89
-107 167 -155 18 -11 17 -11 -4 -6 -12 3 -25 9 -28 14 -3 5 -10 9 -16 9 -6 0
-5 -7 3 -17 13 -15 12 -15 -8 -4 -19 10 -22 9 -17 -4 4 -8 10 -15 16 -15 5 0
7 -4 4 -9 -3 -4 4 -17 15 -27 16 -14 19 -26 14 -51 -3 -19 -2 -33 4 -33 5 0 7
-10 3 -22 -3 -14 -1 -19 6 -14 8 5 10 -2 6 -24 -4 -19 -2 -30 5 -30 6 0 11 -9
11 -20 0 -21 18 -60 33 -71 4 -3 9 -15 10 -27 0 -11 5 -18 10 -15 5 3 6 -5 3
-18 -7 -23 -6 -22 17 5 19 22 28 26 42 19 12 -7 14 -13 6 -17 -6 -4 -11 -2
-11 3 0 26 -20 8 -26 -24 -3 -19 -11 -35 -18 -35 -6 0 -3 -5 7 -11 9 -5 17
-21 17 -34 0 -14 4 -25 8 -25 12 0 32 -69 25 -86 -3 -8 0 -14 7 -14 6 0 8 -4
5 -10 -3 -5 -3 -16 2 -22 4 -7 8 -30 9 -50 0 -20 6 -43 12 -51 9 -10 8 -24 -5
-56 -13 -32 -14 -44 -5 -50 15 -9 8 -179 -7 -194 -6 -6 -11 -19 -11 -29 0 -11
-5 -15 -15 -12 -10 4 -15 0 -16 -12 0 -17 -1 -16 -9 2 -5 12 -9 57 -9 100 0
101 -8 182 -26 264 -7 36 -16 97 -20 135 -3 39 -10 84 -15 100 -5 17 -17 55
-26 85 -16 54 -141 365 -211 525 -75 170 -87 211 -119 395 -10 52 -10 108 -1
204 5 64 4 68 -11 53 -11 -12 -15 -32 -14 -69 2 -52 2 -53 -16 -32 -16 19 -19
19 -32 5 -16 -17 -14 -62 4 -73 6 -4 8 -8 5 -8 -9 0 15 -111 65 -294 75 -271
78 -321 51 -721 -4 -60 -12 -118 -17 -128 -6 -12 -5 -23 4 -34 21 -26 4 -93
-24 -93 -6 0 -8 10 -5 22 4 13 0 26 -10 33 -8 6 -16 25 -17 41 -1 16 -4 34 -8
39 -4 6 -4 76 -1 155 15 382 3 527 -76 925 -35 178 -40 233 -22 244 18 11 4
54 -15 47 -8 -3 -14 1 -14 9 0 8 -7 15 -15 15 -25 0 -8 -234 37 -515 18 -116
20 -149 12 -305 -14 -291 -11 -495 10 -576 9 -38 16 -74 15 -80 -2 -9 0 -17
21 -74 7 -19 15 -53 18 -74 2 -22 11 -46 18 -54 8 -8 14 -34 14 -63 0 -35 4
-51 15 -55 8 -4 15 -10 15 -15 0 -22 -49 25 -55 52 -4 16 -10 29 -15 29 -4 0
-13 20 -19 45 -6 25 -16 45 -21 45 -6 0 -10 6 -10 13 0 8 -18 68 -39 135 -49
151 -86 363 -77 441 15 124 20 247 19 461 -1 251 -21 440 -54 503 -10 21 -19
48 -19 60 0 19 -9 26 -53 40 -84 27 -89 25 -81 -28 3 -25 3 -53 -1 -62 -10
-24 -13 -43 -21 -145 -4 -49 -10 -88 -13 -88 -4 0 -12 52 -19 116 -12 120 -17
139 -32 114 -6 -9 -5 -17 2 -21 6 -4 8 -27 5 -55 -2 -27 0 -84 5 -126 8 -64 7
-83 -6 -109 -9 -18 -17 -58 -17 -91 -1 -32 -6 -58 -11 -58 -6 0 -8 -9 -5 -20
3 -12 1 -35 -5 -53 -15 -49 -30 -119 -30 -147 0 -14 2 -96 4 -183 2 -87 1
-162 -3 -168 -3 -5 -2 -31 3 -57 5 -26 9 -66 10 -89 1 -45 12 -52 42 -30 22
16 59 210 75 402 7 77 17 159 22 182 5 23 9 54 9 68 0 14 4 24 8 21 5 -3 9
-139 10 -303 1 -312 15 -604 32 -663 5 -19 10 -51 10 -70 1 -19 10 -78 21
-130 32 -151 32 -150 19 -150 -7 0 -2 -9 11 -19 13 -11 21 -23 17 -27 -5 -4
-17 1 -28 11 -11 10 -20 13 -20 7 0 -7 -4 -12 -10 -12 -5 0 -10 7 -10 15 0 18
-17 20 -23 3 -2 -7 -10 7 -18 32 -7 25 -15 47 -19 50 -6 6 -32 62 -50 110 -12
30 -17 67 -19 143 -1 16 -3 16 -26 1 -14 -9 -26 -14 -26 -10 -1 3 -2 9 -3 14
-1 4 -6 21 -12 37 -33 89 -67 256 -83 405 -6 52 -16 137 -22 188 -10 73 -10
106 0 156 8 39 10 93 7 139 -7 80 1 127 15 91 4 -10 8 -31 8 -46 1 -16 5 -28
10 -28 24 0 51 150 51 288 0 111 -6 145 -26 142 -14 -2 -34 87 -39 170 -2 41
-4 79 -4 84 -2 22 -41 -40 -47 -73 -9 -52 -23 -74 -24 -37 0 16 -2 27 -5 24
-8 -7 17 -208 24 -203 4 2 7 -4 7 -13 1 -9 4 -47 7 -83 3 -36 2 -71 -3 -78 -8
-14 -20 44 -45 219 -7 57 -18 107 -24 113 -12 12 -8 -52 8 -138 31 -166 51
-333 51 -435 0 -63 -4 -110 -8 -104 -11 11 -32 174 -32 243 0 51 -12 67 -25
34 -6 -16 -9 -14 -21 10 -8 15 -24 57 -36 95 -16 52 -22 63 -28 47 -10 -28 -2
-109 20 -185 10 -36 21 -84 25 -108 4 -24 17 -70 30 -103 13 -32 21 -59 19
-59 -2 0 2 -13 11 -30 8 -16 15 -38 15 -50 0 -11 4 -20 9 -20 5 0 11 -17 14
-37 3 -21 8 -49 12 -62 6 -17 5 -22 -4 -17 -12 8 -81 147 -81 163 0 18 -68 75
-75 63 -4 -6 -1 -17 5 -25 7 -8 10 -15 6 -15 -3 0 1 -16 9 -36 18 -45 18 -44
0 -44 -8 0 -15 4 -15 9 0 4 -16 25 -35 45 -19 21 -35 44 -35 51 0 14 -18 30
-25 23 -2 -2 1 -21 6 -43 6 -22 11 -46 11 -52 1 -7 8 -13 16 -13 13 0 12 -3
-2 -19 -21 -23 -22 -55 -3 -148 16 -78 16 -78 -32 -76 -9 1 -10 -2 -2 -10 18
-18 13 -45 -10 -52 l-21 -7 21 -15 c23 -16 28 -33 9 -33 -19 -1 -50 -48 -42
-62 5 -8 2 -9 -9 -5 -9 3 -19 2 -22 -3 -4 -6 1 -10 9 -10 20 0 21 -14 2 -29
-11 -9 -15 -9 -19 1 -3 10 -7 10 -17 1 -15 -13 12 -33 75 -54 48 -17 125 -59
108 -59 -7 0 -13 -7 -13 -15 0 -8 -17 -32 -37 -53 -21 -21 -46 -52 -55 -68
-18 -31 -14 -30 -126 -21 -34 2 -42 0 -37 -11 3 -9 -7 -26 -23 -41 -16 -14
-34 -35 -40 -47 -9 -18 -21 -21 -77 -23 -57 -2 -115 -14 -115 -23 0 -2 51 -2
113 0 90 3 128 -1 187 -17 40 -12 77 -26 80 -31 4 -6 11 -10 16 -9 5 2 29 -7
53 -19 25 -12 47 -22 49 -22 3 0 2 19 -1 42 -10 74 11 187 48 251 33 59 45 60
45 3 0 -12 9 -42 21 -66 28 -57 70 -231 60 -244 -5 -6 -11 -23 -15 -38 -5 -21
-3 -28 9 -28 8 0 15 -4 15 -10 0 -17 109 -62 135 -56 14 4 25 3 25 -2 0 -4 32
-8 71 -9 39 0 74 -5 78 -11 3 -6 20 -10 36 -9 53 2 170 -15 177 -26 4 -6 25
-10 48 -9 27 2 39 -1 35 -8 -3 -5 -5 -10 -3 -10 58 -7 208 -21 221 -21 9 0 17
-4 17 -7 0 -4 10 -8 22 -9 11 -1 25 -8 29 -15 8 -12 119 -20 119 -8 0 3 16 6
35 7 20 1 33 -3 30 -8 -4 -5 -1 -9 4 -9 6 0 11 4 11 10 0 5 7 6 17 3 12 -5 14
-3 8 7 -5 9 -4 11 3 6 7 -4 22 0 34 8 12 9 34 16 49 16 43 0 151 -45 184 -77
22 -22 53 -36 114 -52 52 -13 98 -32 119 -49 51 -41 115 -82 127 -82 6 0 21 9
33 21 28 25 129 79 149 79 27 0 121 52 132 74 7 11 18 32 26 46 8 14 10 27 5
30 -6 4 -6 20 1 43 9 33 15 38 64 53 30 10 51 22 48 27 -3 6 -1 7 5 4 15 -10
43 3 35 16 -3 5 -1 7 4 4 10 -6 62 11 149 48 l31 13 -13 84 c-7 45 -16 96 -19
112 -4 22 -2 27 10 22 8 -3 15 -1 15 4 0 6 -4 10 -9 10 -5 0 -7 19 -5 43 11
107 10 144 -2 169 -16 32 -19 62 -4 38 8 -12 10 -10 10 8 0 13 -4 21 -9 18 -5
-3 -11 10 -13 30 -4 35 6 55 16 32 3 -7 4 -2 3 12 -2 27 -17 31 -29 9 -4 -8
-19 -42 -34 -76 -28 -66 -29 -113 0 -53 l16 35 -6 -38 c-3 -26 -2 -37 5 -32
14 8 14 -5 1 -25 -8 -13 -10 -13 -10 1 0 9 -9 19 -20 22 -16 4 -24 -2 -35 -30
-8 -19 -13 -47 -10 -62 3 -14 2 -20 -1 -13 -5 10 -9 9 -20 -5 -26 -35 -14 8
40 146 47 118 75 198 101 290 5 14 3 21 -3 17 -5 -3 -12 5 -14 19 -6 29 -4 30
15 10 13 -13 14 -9 10 28 -4 33 -2 39 7 27 9 -12 10 -11 5 8 -4 13 -2 22 4 22
6 0 10 10 10 23 -1 16 -2 18 -6 5 -2 -10 -11 -18 -18 -18 -18 0 -30 -24 -39
-73 -4 -22 -14 -41 -24 -44 -9 -4 -22 -14 -29 -22 -6 -9 -15 -13 -19 -9 -4 4
6 26 22 49 16 24 27 52 26 65 -2 13 2 31 8 41 11 17 11 17 6 0 -3 -11 -2 -15
4 -12 6 3 10 15 10 25 0 10 5 22 10 25 6 3 10 14 10 23 0 12 -10 7 -34 -19
-18 -20 -35 -42 -38 -50 -3 -8 -9 -11 -13 -7 -4 4 2 23 13 43 12 19 17 35 12
35 -5 0 -14 -9 -20 -21 -7 -11 -14 -18 -17 -15 -3 3 0 13 7 21 11 13 10 18 -6
30 -23 17 -11 20 15 3 21 -13 56 -4 46 12 -3 5 -2 10 4 10 6 0 8 16 4 38 -8
55 -36 152 -45 152 -4 0 -7 -21 -7 -47 1 -27 -3 -59 -9 -73 -5 -14 -7 -30 -5
-37 2 -6 -5 -14 -16 -18 -12 -3 -21 -14 -22 -23 0 -9 -3 -28 -6 -42 -4 -14 -7
-37 -7 -51 -1 -15 -6 -25 -12 -22 -12 4 -1 83 18 132 10 25 15 52 22 115 2 16
-5 51 -14 77 -10 26 -15 51 -11 55 3 4 -1 5 -9 2 -8 -3 -14 -14 -12 -24 1 -10
5 -37 9 -58 4 -28 3 -37 -5 -32 -7 4 -12 24 -13 44 -1 38 -3 36 -13 -11 -6
-24 -9 -26 -27 -17 -12 7 -17 16 -12 23 4 7 8 18 10 26 1 8 4 25 7 38 5 16 0
25 -14 33 -26 14 -43 4 -35 -21 4 -11 2 -19 -4 -19 -6 0 -11 4 -11 9 0 5 -3
16 -6 24 -7 20 29 31 56 17 13 -7 20 -7 20 0 0 5 -6 10 -12 10 -9 0 -8 4 2 11
11 7 5 8 -20 2 -53 -11 -113 -10 -117 4 -3 8 11 10 50 6 30 -3 57 -2 60 3 5 9
-27 14 -130 17 -33 1 -56 5 -50 9 6 4 -9 8 -33 10 l-45 3 39 23 c29 17 37 19
32 7 -5 -14 -2 -14 25 1 34 17 116 15 223 -5 63 -13 108 -10 71 3 -55 21 -61
26 -25 23 32 -2 35 0 33 23 -4 47 -35 255 -39 259 -6 6 -26 -52 -29 -84 -1
-16 -5 -37 -8 -45 -3 -8 -8 -43 -11 -78 -2 -35 -7 -66 -10 -70 -6 -5 -109 11
-159 25 -15 4 -15 6 -2 19 8 9 15 20 15 25 0 22 62 59 99 59 22 0 43 22 33 35
-9 13 -44 16 -36 4 3 -5 -6 -9 -20 -9 -14 0 -28 -5 -31 -11 -4 -6 -14 -8 -22
-5 -8 3 -11 2 -8 -4 3 -5 -3 -9 -12 -9 -10 1 -28 -2 -40 -6 -15 -5 -23 -3 -23
4 0 6 5 11 11 11 5 0 8 4 5 9 -9 14 -60 20 -73 9 -9 -7 -13 -7 -13 1 0 6 -9
11 -21 11 -11 0 -17 4 -14 10 3 5 -7 12 -22 15 -44 9 -93 37 -93 52 0 10 -7
12 -22 8 -16 -4 -19 -4 -9 3 7 5 10 15 7 21 -11 17 -26 13 -27 -6 -1 -12 -4
-9 -8 7 -4 14 -13 25 -21 25 -8 0 -21 4 -28 9 -18 11 -145 26 -232 27 -14 1
-28 6 -32 12 -5 7 -8 3 -8 -10 0 -16 -4 -21 -16 -16 -10 4 -13 14 -10 32 6 28
-8 60 -21 48 -4 -4 -2 -16 4 -25 8 -14 7 -23 -2 -36 -13 -16 -16 -14 -41 26
-54 85 -225 454 -187 402 4 -6 18 -16 30 -23 13 -6 20 -17 17 -25 -9 -22 11
-27 24 -5 8 12 9 19 1 19 -5 0 -8 4 -5 9 9 14 -16 57 -39 67 -11 5 -21 19 -23
32 -2 12 -9 22 -16 22 -8 0 -19 7 -27 16 -10 13 -10 17 1 24 11 7 8 11 -13 19
-16 6 -32 11 -36 11 -4 0 -14 11 -21 25 -7 14 -18 25 -24 25 -6 0 -5 -5 2 -12
14 -14 16 -28 3 -28 -19 0 -19 40 1 51 11 6 17 17 14 25 -4 10 4 18 24 25 16
6 31 18 33 27 4 15 5 15 6 -1 1 -13 7 -16 29 -12 l27 5 -29 -13 c-27 -13 -27
-14 -7 -20 12 -3 36 -1 54 4 19 5 35 5 40 0 5 -5 17 -7 26 -4 11 4 9 -1 -6
-16 -12 -11 -31 -21 -42 -21 -10 0 -22 -7 -25 -16 -9 -23 -1 -28 14 -9 7 8 20
15 29 15 14 0 14 -2 1 -10 -8 -5 -10 -10 -4 -10 5 0 23 13 38 29 30 31 66 43
88 30 8 -6 -1 -9 -27 -10 -22 -1 -32 -3 -23 -6 11 -3 15 -10 11 -20 -4 -11 -2
-14 5 -9 18 11 35 -3 23 -18 -7 -8 -5 -12 9 -12 10 0 18 3 18 6 -3 37 4 60 20
60 13 0 17 -8 16 -34 -2 -28 1 -33 17 -29 11 3 19 0 19 -7 0 -7 8 -9 23 -4 12
4 29 9 37 11 9 3 7 -3 -6 -14 -12 -10 -24 -27 -28 -38 -7 -18 -5 -18 17 3 23
22 46 20 28 -2 -5 -6 -11 -15 -13 -21 -1 -5 -11 -9 -20 -8 -10 2 -18 -2 -18
-7 0 -13 26 -13 51 0 12 7 19 7 19 1 0 -5 8 -12 18 -14 15 -4 15 -5 1 -6 -18
-1 -33 -27 -24 -41 3 -5 1 -11 -5 -15 -13 -8 -13 -35 1 -35 5 0 7 5 4 10 -11
17 12 11 36 -10 l24 -20 -29 10 -29 11 6 -37 c5 -31 4 -34 -9 -23 -24 19 -26
4 -3 -17 16 -14 23 -15 26 -6 3 6 9 12 15 12 6 0 7 -7 4 -16 -3 -8 -2 -12 4
-9 14 9 12 26 -5 46 -15 15 -14 17 10 23 24 6 25 8 9 23 -15 16 -15 17 5 25
15 5 20 14 17 30 -3 13 -5 26 -5 30 -1 3 -9 9 -18 11 -12 3 -9 5 8 6 32 1 42
10 29 26 -7 9 -5 16 6 25 16 14 64 20 64 9 0 -4 11 -10 24 -13 13 -3 27 -16
31 -28 8 -22 8 -22 12 5 5 34 22 36 18 2 -2 -25 18 -35 30 -15 8 14 42 13 51
-2 4 -7 3 -8 -5 -4 -18 12 -44 -14 -30 -30 6 -7 8 -18 4 -25 -5 -7 -1 -9 11
-6 11 3 28 8 39 11 18 5 20 1 19 -40 -1 -25 -6 -50 -13 -57 -17 -17 -13 -35
12 -43 12 -5 25 -7 30 -6 4 1 7 -3 7 -8 0 -6 -6 -10 -14 -10 -8 0 -18 -10 -22
-22 -4 -13 -14 -28 -22 -34 -18 -13 -7 -36 15 -32 9 2 18 -3 20 -9 3 -7 -3
-13 -12 -13 -12 0 -15 -6 -10 -20 6 -18 4 -19 -19 -10 -17 6 -26 6 -26 0 0 -6
5 -10 12 -10 6 0 9 -2 6 -5 -3 -3 -16 -1 -29 5 -18 8 -33 8 -53 0 -24 -9 -26
-13 -15 -26 10 -13 10 -17 -1 -24 -18 -11 6 -36 41 -43 23 -4 22 -4 -3 -6 -16
0 -28 -4 -28 -8 1 -14 27 -43 39 -43 6 0 11 -4 11 -9 0 -5 14 -14 30 -21 19
-8 30 -20 30 -32 0 -11 8 -22 19 -25 12 -3 23 -17 26 -34 5 -22 12 -29 31 -29
14 0 23 -4 20 -9 -3 -5 22 -14 56 -21 50 -9 62 -9 69 2 7 10 9 10 9 1 0 -7 8
-13 18 -12 10 0 12 3 5 6 -8 3 -3 15 17 36 35 37 36 42 13 57 -16 10 -15 10 4
5 18 -5 22 -1 28 25 5 24 11 30 28 28 12 -2 26 -7 30 -13 5 -6 7 2 4 17 -3 19
0 25 10 21 8 -3 13 2 13 16 0 19 -3 20 -21 11 -30 -17 -38 -2 -11 21 14 11 20
23 16 30 -5 9 -2 10 9 6 12 -4 14 -2 10 10 -5 13 -2 15 11 10 14 -6 16 -3 10
15 -5 15 -3 20 7 16 11 -4 13 8 9 63 -6 73 -3 92 10 84 10 -6 24 51 15 65 -3
5 1 10 9 10 10 0 16 9 16 21 0 12 8 23 19 26 21 5 30 30 32 83 0 19 4 44 8 54
7 19 8 18 14 -4 3 -13 10 -21 14 -17 10 11 12 117 1 117 -4 0 -3 12 2 26 6 14
6 23 1 20 -5 -3 -12 1 -15 10 -10 25 -7 36 7 28 6 -4 3 3 -8 14 -38 40 -45 51
-36 57 6 3 9 23 9 45 l0 40 -682 0 -682 -1 -17 -47z m145 16 c-6 -6 -15 -8
-19 -4 -4 4 -1 11 7 16 19 12 27 3 12 -12z m218 -13 c0 -8 -8 -11 -20 -8 -20
5 -25 15 -14 26 9 9 34 -4 34 -18z m-20 -49 c0 -3 -4 -8 -10 -11 -5 -3 -10 -1
-10 4 0 6 5 11 10 11 6 0 10 -2 10 -4z m-250 -16 c0 -5 -2 -10 -4 -10 -3 0 -8
5 -11 10 -3 6 -1 10 4 10 6 0 11 -4 11 -10z m80 -10 c0 -5 -7 -10 -16 -10 -8
0 -12 5 -9 10 3 6 10 10 16 10 5 0 9 -4 9 -10z m130 -16 c-8 -8 -23 -20 -34
-26 -18 -9 -17 -7 4 15 27 28 51 37 30 11z m1027 -11 c-4 -4 5 -20 20 -36 16
-17 22 -27 16 -23 -18 10 -16 -4 3 -25 10 -11 12 -19 5 -24 -7 -4 -21 15 -36
46 -22 48 -24 69 -8 69 4 0 3 -3 0 -7z m-967 -33 c0 -5 -4 -10 -10 -10 -5 0
-10 5 -10 10 0 6 5 10 10 10 6 0 10 -4 10 -10z m60 -30 c0 -5 -5 -10 -11 -10
-5 0 -7 5 -4 10 3 6 8 10 11 10 2 0 4 -4 4 -10z m-26 -16 c9 -3 16 -12 16 -20
0 -17 -26 -8 -34 12 -6 16 -4 17 18 8z m963 -86 c-3 -8 -6 -5 -6 6 -1 11 2 17
5 13 3 -3 4 -12 1 -19z m-537 -68 c0 -5 -4 -10 -10 -10 -5 0 -10 5 -10 10 0 6
5 10 10 10 6 0 10 -4 10 -10z m35 0 c3 -5 -1 -10 -9 -10 -9 0 -16 5 -16 10 0
6 4 10 9 10 6 0 13 -4 16 -10z m-746 -83 c11 -31 32 -80 46 -108 29 -56 46
-99 41 -99 -6 0 -76 151 -103 220 -13 36 -20 61 -15 55 5 -5 19 -36 31 -68z
m-787 -231 c10 -7 14 -16 10 -21 -4 -4 3 -5 14 -1 19 6 23 1 34 -44 7 -28 10
-54 7 -57 -3 -3 -9 11 -12 31 -4 19 -14 41 -23 48 -14 11 -15 10 -8 -12 18
-60 27 -96 31 -115 1 -11 6 -33 10 -50 6 -28 5 -28 -7 -9 -7 12 -19 19 -27 16
-11 -3 -12 2 -7 23 4 17 3 24 -4 20 -6 -4 -10 7 -10 29 0 20 -5 36 -11 36 -6
0 -9 6 -6 13 2 6 -1 23 -8 37 -32 65 -25 89 17 56z m1588 0 c0 -3 -4 -8 -10
-11 -5 -3 -10 -1 -10 4 0 6 5 11 10 11 6 0 10 -2 10 -4z m-6 -75 c4 -5 -3 -7
-14 -4 -23 6 -26 13 -6 13 8 0 17 -4 20 -9z m-1893 -92 c-9 -22 -10 -22 -10
-3 -1 11 2 24 6 27 12 12 14 0 4 -24z m19 -50 c0 -5 -4 -9 -10 -9 -5 0 -10 7
-10 16 0 8 5 12 10 9 6 -3 10 -10 10 -16z m1454 -4 c33 -17 76 -56 76 -69 0
-5 -7 -3 -15 4 -21 17 -31 5 -15 -17 8 -10 1 -6 -14 10 -15 15 -29 27 -32 27
-2 0 -2 -20 0 -45 4 -56 -15 -56 -28 -1 -7 27 -7 39 2 45 8 5 6 11 -8 21 -22
16 -27 40 -7 40 6 0 25 -7 41 -15z m-91 -31 c1 -10 6 -25 11 -32 4 -7 5 -16 2
-19 -8 -8 -36 59 -29 70 7 11 12 5 16 -19z m-1349 -10 c9 -24 7 -27 -9 -10
-17 17 -19 26 -6 26 5 0 12 -7 15 -16z m1531 5 c11 -16 1 -19 -13 -3 -7 8 -8
14 -3 14 5 0 13 -5 16 -11z m-1241 -24 c-4 -8 -10 -15 -15 -15 -5 0 -9 7 -9
15 0 8 7 15 15 15 9 0 12 -6 9 -15z m1296 -15 c10 0 22 -5 26 -12 5 -8 -2 -9
-26 -5 -18 4 -39 7 -46 7 -8 0 -14 4 -14 9 0 12 34 19 38 9 2 -4 12 -8 22 -8z
m210 -125 c17 -21 -1 -39 -29 -30 -17 5 -19 10 -11 26 13 23 23 24 40 4z
m-390 -25 c0 -21 26 -38 38 -25 4 4 1 10 -5 12 -7 3 -13 9 -13 14 0 5 9 4 19
-3 37 -23 -22 -73 -66 -57 -27 10 -29 26 -7 57 19 28 34 28 34 2z m-1263 -32
c-3 -8 -6 -5 -6 6 -1 11 2 17 5 13 3 -3 4 -12 1 -19z m-310 -20 c-3 -7 -5 -2
-5 12 0 14 2 19 5 13 2 -7 2 -19 0 -25z m173 -45 c-10 -16 -10 -16 -5 3 4 14
0 24 -10 28 -8 3 -15 10 -15 15 0 6 7 8 15 5 10 -4 16 0 17 12 0 11 3 4 5 -13
2 -18 -1 -41 -7 -50z m1748 52 c29 -9 52 -20 52 -24 0 -10 -79 -51 -97 -51
-23 0 -23 32 -1 50 23 19 22 19 -36 4 -66 -17 -88 -12 -29 6 21 7 42 16 48 21
11 11 2 12 63 -6z m26 -91 c3 -9 6 -25 5 -37 0 -21 -1 -21 -8 -2 -7 16 -10 9
-15 -30 -4 -27 -9 -61 -11 -75 -2 -14 -2 -19 2 -11 4 10 7 10 13 1 10 -16 34
55 24 72 -4 7 -3 9 2 5 4 -4 18 14 30 40 28 60 31 31 4 -37 -26 -66 -25 -84 1
-40 12 19 27 38 33 42 7 5 6 8 -3 8 -8 0 -12 2 -10 5 3 2 18 0 35 -4 16 -5 23
-10 17 -10 -7 -1 -13 -6 -13 -12 0 -6 -10 -19 -22 -28 -14 -12 -21 -29 -21
-49 0 -25 -3 -29 -14 -21 -10 9 -13 6 -13 -17 0 -22 -3 -25 -9 -15 -14 22 -25
-30 -18 -77 4 -24 3 -32 -3 -22 -8 12 -10 12 -15 -2 -4 -9 -21 -20 -38 -24
-18 -3 -38 -11 -46 -18 -12 -9 -13 -8 -8 7 4 11 3 16 -3 12 -10 -6 -60 40 -60
55 0 4 -25 31 -55 61 -66 65 -71 92 -20 116 36 17 46 40 21 49 -8 3 -13 17
-12 31 1 24 2 25 66 21 37 -3 83 1 105 8 52 17 52 17 59 -2z m271 -91 c-4 -10
-7 -22 -7 -28 0 -5 3 -18 7 -27 5 -13 3 -18 -8 -18 -9 0 -21 18 -29 45 l-15
45 29 0 c25 0 29 -3 23 -17z m-1004 -36 c-8 -8 -11 -7 -11 4 0 20 13 34 18 19
3 -7 -1 -17 -7 -23z m845 -3 c-3 -9 -6 -20 -6 -26 0 -6 -6 -5 -15 2 -12 10
-13 16 -4 26 16 19 33 18 25 -2z m-862 -59 c-4 -8 -9 -15 -13 -15 -4 0 -8 7
-8 15 0 8 6 15 13 15 8 0 11 -6 8 -15z m888 -20 c4 -20 3 -23 -8 -14 -16 13
-19 39 -5 39 5 0 11 -11 13 -25z m70 -10 c3 -14 1 -25 -3 -25 -5 0 -9 11 -9
25 0 14 2 25 4 25 2 0 6 -11 8 -25z m-889 -31 c-6 -16 -2 -17 21 -8 9 3 13 11
9 17 -3 6 -1 7 5 3 7 -4 12 -18 12 -32 0 -14 7 -38 15 -53 8 -16 11 -32 7 -36
-4 -5 0 -6 8 -3 13 5 41 -13 40 -27 -1 -21 2 -24 15 -19 11 5 13 2 8 -12 -4
-12 -3 -15 5 -10 17 11 15 -5 -5 -26 -9 -10 -13 -21 -9 -25 4 -4 11 -1 16 7 5
8 11 12 14 10 2 -3 -4 -15 -14 -28 -18 -22 -49 -21 -51 2 0 6 -7 -2 -15 -19
l-15 -30 6 28 c4 19 0 34 -15 49 -11 12 -28 39 -37 60 -9 21 -21 38 -26 38 -5
0 -7 7 -3 15 3 8 0 15 -6 15 -6 0 -4 8 5 18 10 10 14 22 10 25 -3 4 -1 7 5 7
6 0 15 -8 21 -17 9 -16 10 -16 8 3 -1 24 -42 29 -42 5 0 -8 -6 -16 -13 -19 -7
-2 -11 2 -10 10 2 7 -3 12 -10 10 -8 -1 -11 2 -7 8 3 6 12 8 18 4 7 -3 1 3
-12 14 -25 20 -20 26 23 28 17 1 23 -2 19 -12z m857 -5 c0 -6 -4 -7 -10 -4 -5
3 -10 11 -10 16 0 6 5 7 10 4 6 -3 10 -11 10 -16z m-950 1 c0 -5 -5 -10 -11
-10 -5 0 -7 5 -4 10 3 6 8 10 11 10 2 0 4 -4 4 -10z m397 -11 c32 -10 54 -29
33 -29 -15 0 -100 39 -100 46 0 4 8 3 18 -1 9 -4 31 -11 49 -16z m763 17 c0
-3 -4 -8 -10 -11 -5 -3 -10 -1 -10 4 0 6 5 11 10 11 6 0 10 -2 10 -4z m-767
-81 c36 -27 64 -51 62 -53 -2 -2 -19 1 -38 7 -19 7 -55 12 -81 13 -37 0 -46 4
-41 15 4 11 1 13 -11 9 -11 -4 -15 -2 -11 8 3 7 1 18 -5 24 -12 12 30 44 47
34 6 -4 41 -29 78 -57z m412 45 c3 -5 1 -10 -4 -10 -6 0 -11 5 -11 10 0 6 2
10 4 10 3 0 8 -4 11 -10z m341 -48 c-12 -12 -18 8 -10 35 l8 28 4 -28 c2 -16
1 -31 -2 -35z m-946 44 c0 -3 -4 -8 -10 -11 -5 -3 -10 -1 -10 4 0 6 5 11 10
11 6 0 10 -2 10 -4z m318 -32 c12 -8 20 -19 17 -24 -5 -8 -44 14 -85 48 -12
10 47 -11 68 -24z m352 -37 c0 -21 -18 7 -25 38 l-7 30 16 -29 c9 -15 16 -33
16 -39z m417 41 c-3 -8 -6 -5 -6 6 -1 11 2 17 5 13 3 -3 4 -12 1 -19z m-312
-107 c-6 -24 -7 -25 -17 -6 -8 14 -8 20 0 23 7 2 9 8 6 13 -3 5 -2 29 3 52 l8
42 3 -49 c2 -27 0 -61 -3 -75z m-380 89 c-3 -5 -14 -10 -23 -10 -15 0 -15 2
-2 10 20 13 33 13 25 0z m531 -35 c-9 -9 -16 -13 -16 -8 0 12 22 34 28 28 2
-2 -3 -11 -12 -20z m-466 5 c0 -5 -4 -10 -10 -10 -5 0 -10 5 -10 10 0 6 5 10
10 10 6 0 10 -4 10 -10z m70 6 c0 -3 -4 -8 -10 -11 -5 -3 -10 -1 -10 4 0 6 5
11 10 11 6 0 10 -2 10 -4z m-1955 -26 c3 -5 -1 -10 -9 -10 -9 0 -16 5 -16 10
0 6 4 10 9 10 6 0 13 -4 16 -10z m2108 -44 c4 -28 4 -53 -1 -58 -5 -5 -9 9
-10 33 -2 49 -9 62 -28 55 -15 -6 -19 6 -7 18 19 18 38 -2 46 -48z m-886 -3
c-3 -10 -5 -2 -5 17 0 19 2 27 5 18 2 -10 2 -26 0 -35z m676 37 c-25 -10 -31
-35 -10 -43 7 -3 4 -6 -7 -6 -14 -1 -17 -7 -13 -26 3 -16 0 -24 -7 -22 -10 3
-11 19 -7 80 0 10 5 16 10 12 5 -3 12 -1 16 5 3 5 14 10 23 9 12 0 11 -3 -5
-9z m177 -47 c0 -22 -2 -25 -10 -13 -13 20 -13 40 0 40 6 0 10 -12 10 -27z
m-316 -22 c-10 -10 -21 -14 -23 -8 -4 10 17 27 33 27 5 0 1 -8 -10 -19z m-510
-16 c3 -8 1 -15 -4 -15 -6 0 -10 7 -10 15 0 8 2 15 4 15 2 0 6 -7 10 -15z
m826 -17 c0 -19 -2 -20 -10 -8 -8 13 -10 13 -10 -2 0 -9 4 -20 10 -23 14 -9 8
-56 -8 -62 -22 -9 -27 6 -6 22 11 8 14 15 7 15 -14 0 -18 61 -6 73 13 14 23 7
23 -15z m-238 -26 c-7 -2 -12 -24 -12 -56 0 -60 -17 -119 -32 -110 -5 4 -8 15
-5 25 3 11 1 19 -4 19 -5 0 -9 9 -9 20 0 27 14 25 28 -2 l11 -23 0 22 c1 12
-4 25 -10 28 -11 8 -3 62 13 82 6 7 15 10 21 6 8 -5 7 -8 -1 -11z m578 4 c0
-8 -4 -18 -10 -21 -5 -3 -10 3 -10 14 0 12 5 21 10 21 6 0 10 -6 10 -14z
m-313 -18 c-3 -8 -6 -5 -6 6 -1 11 2 17 5 13 3 -3 4 -12 1 -19z m-725 -43 c-2
-14 -8 -25 -13 -25 -10 0 -12 34 -2 43 13 14 20 6 15 -18z m-74 -20 c-27 -14
-33 -12 -25 9 4 9 14 12 27 9 21 -6 21 -6 -2 -18z m842 15 c0 -5 -9 -10 -20
-10 -11 0 -20 5 -20 10 0 6 9 10 20 10 11 0 20 -4 20 -10z m-28 -42 c-10 -13
-12 -19 -12 -38 0 -5 -5 -10 -11 -10 -8 0 -8 5 1 15 10 12 10 15 -3 15 -8 0
-18 -6 -20 -12 -3 -8 -6 -6 -6 5 -1 9 -8 17 -16 17 -8 0 -15 5 -15 10 0 6 21
10 46 10 36 0 44 -3 36 -12z m-742 -28 c0 -11 -4 -20 -8 -20 -4 0 -8 9 -8 20
0 11 4 20 8 20 4 0 8 -9 8 -20z m-1413 4 c-3 -3 -12 -4 -19 -1 -8 3 -5 6 6 6
11 1 17 -2 13 -5z m2121 -46 c17 -17 15 -48 -3 -48 -9 0 -15 -10 -15 -26 0
-14 -4 -23 -8 -20 -12 7 -8 42 6 59 10 12 10 18 -3 31 -13 12 -13 16 -3 16 8
0 19 -5 26 -12z m-778 -18 c0 -5 -4 -10 -10 -10 -5 0 -10 5 -10 10 0 6 5 10
10 10 6 0 10 -4 10 -10z m757 -6 c-3 -3 -12 -4 -19 -1 -8 3 -5 6 6 6 11 1 17
-2 13 -5z m156 -9 c-3 -9 -8 -14 -10 -11 -3 3 -2 9 2 15 9 16 15 13 8 -4z
m-811 -17 c-7 -7 -12 -8 -12 -2 0 6 3 14 7 17 3 4 9 5 12 2 2 -3 -1 -11 -7
-17z m48 -22 c0 -7 -9 -16 -20 -19 -22 -6 -29 18 -7 26 21 9 27 7 27 -7z m335
4 c3 -5 -7 -16 -22 -24 -20 -11 -23 -15 -10 -16 21 0 24 -40 2 -40 -8 0 -15 9
-15 20 0 11 -6 20 -12 21 -10 0 -10 2 0 6 6 2 12 11 12 18 0 20 34 32 45 15z
m-105 -11 c0 -20 -21 -49 -35 -49 -9 0 -12 -6 -8 -16 4 -10 -1 -17 -16 -21
-11 -3 -21 -10 -21 -15 0 -5 -11 -21 -25 -36 -14 -15 -25 -32 -25 -38 0 -14
-55 -66 -63 -58 -3 3 -2 17 3 30 7 18 6 22 -5 17 -20 -7 -19 12 3 34 28 29 55
90 49 112 -6 25 8 28 21 5 7 -13 13 -14 28 -6 10 6 15 12 10 12 -5 0 -1 9 9
20 19 21 75 28 75 9z m387 -76 c-3 -10 -5 -4 -5 12 0 17 2 24 5 18 2 -7 2 -21
0 -30z m-547 17 c0 -5 -5 -10 -11 -10 -6 0 -8 -8 -4 -19 7 -23 -5 -33 -25 -20
-10 6 -11 9 -2 9 6 0 12 8 12 18 0 10 3 22 7 25 10 10 23 8 23 -3z m647 -12
c-3 -8 -6 -5 -6 6 -1 11 2 17 5 13 3 -3 4 -12 1 -19z m-524 -241 c9 -14 26
-49 37 -77 11 -28 29 -69 40 -90 l20 -39 -30 11 c-20 6 -30 17 -30 30 0 10 -4
16 -10 13 -5 -3 -10 1 -10 9 0 8 -10 23 -23 33 -45 37 -60 73 -60 144 1 92 13
107 33 43 8 -27 23 -62 33 -77z m-168 103 c-3 -5 -14 -10 -23 -10 -15 0 -15 2
-2 10 20 13 33 13 25 0z m1074 -48 c0 -24 -1 -25 -9 -7 -12 28 -12 47 0 40 6
-3 10 -18 9 -33z m-469 -2 c-6 -11 -13 -20 -16 -20 -2 0 0 9 6 20 6 11 13 20
16 20 2 0 0 -9 -6 -20z m-20 -44 c0 -2 -7 -9 -15 -16 -13 -11 -14 -10 -9 4 5
14 24 23 24 12z m369 -32 c-6 -8 -8 -14 -5 -14 4 0 2 -9 -4 -20 -6 -11 -18
-20 -26 -20 -20 0 -11 49 13 67 20 16 38 6 22 -13z m-29 -74 c0 -5 -4 -10 -10
-10 -5 0 -10 5 -10 10 0 6 5 10 10 10 6 0 10 -4 10 -10z m63 -65 c-3 -9 -8
-14 -10 -11 -3 3 -2 9 2 15 9 16 15 13 8 -4z m-66 -41 c-3 -3 -12 -4 -19 -1
-8 3 -5 6 6 6 11 1 17 -2 13 -5z m33 -14 c0 -5 -5 -10 -11 -10 -5 0 -7 5 -4
10 3 6 8 10 11 10 2 0 4 -4 4 -10z m-657 -34 c7 -17 55 -27 62 -12 3 7 7 7 11
-2 5 -10 9 -9 20 5 7 10 13 14 13 8 0 -15 -38 -82 -39 -67 0 6 -3 11 -7 10
-22 -4 -83 41 -83 62 0 15 17 12 23 -4z m-858 -16 c3 -5 1 -10 -4 -10 -6 0
-11 5 -11 10 0 6 2 10 4 10 3 0 8 -4 11 -10z m1510 -30 c3 -5 2 -10 -4 -10 -5
0 -13 5 -16 10 -3 6 -2 10 4 10 5 0 13 -4 16 -10z m-1608 -146 c-3 -3 -12 -4
-19 -1 -8 3 -5 6 6 6 11 1 17 -2 13 -5z"/>
<path d="M2762 2460 c-8 -13 -8 -20 -1 -20 5 0 7 -4 4 -10 -3 -5 -1 -10 5 -10
7 0 10 6 7 13 -2 6 0 20 5 30 12 24 -4 22 -20 -3z"/>
<path d="M2390 1864 c0 -8 5 -12 10 -9 6 4 8 11 5 16 -9 14 -15 11 -15 -7z"/>
<path d="M3383 3909 c-2 -23 3 -25 10 -4 4 8 3 16 -1 19 -4 3 -9 -4 -9 -15z"/>
<path d="M2155 3800 c-3 -6 1 -7 9 -4 18 7 21 14 7 14 -6 0 -13 -4 -16 -10z"/>
<path d="M2015 3780 c-3 -5 -1 -10 4 -10 6 0 11 5 11 10 0 6 -2 10 -4 10 -3 0
-8 -4 -11 -10z"/>
<path d="M2155 3710 c3 -5 8 -10 11 -10 2 0 4 5 4 10 0 6 -5 10 -11 10 -5 0
-7 -4 -4 -10z"/>
<path d="M2246 3700 c9 -8 54 -7 54 2 0 5 -13 7 -30 6 -16 -1 -27 -5 -24 -8z"/>
<path d="M2360 3690 c-8 -5 -10 -10 -5 -10 6 0 2 -5 -8 -11 -9 -6 -15 -14 -12
-20 7 -10 35 14 35 29 0 6 6 13 13 15 6 3 8 6 2 6 -5 0 -17 -4 -25 -9z"/>
<path d="M1551 3674 c0 -11 3 -14 6 -6 3 7 2 16 -1 19 -3 4 -6 -2 -5 -13z"/>
<path d="M1827 3642 c-16 -17 -27 -39 -27 -56 l0 -28 29 24 c16 12 40 32 55
42 20 15 24 22 15 32 -18 22 -43 17 -72 -14z"/>
<path d="M2147 3643 c-10 -9 -9 -23 1 -23 5 0 9 7 9 15 0 17 -1 18 -10 8z"/>
<path d="M2455 3630 c-3 -5 -2 -10 4 -10 5 0 13 5 16 10 3 6 2 10 -4 10 -5 0
-13 -4 -16 -10z"/>
<path d="M1539 3588 l-1 -33 -8 30 -8 30 -1 -32 c-1 -25 -12 -41 -51 -75 -27
-24 -50 -49 -50 -55 0 -16 16 -17 25 -3 4 6 11 8 16 4 5 -3 7 -9 4 -14 -3 -4
15 -8 40 -8 l45 1 0 94 c0 51 -2 93 -5 93 -3 0 -6 -15 -6 -32z m-30 -134 c-6
-8 -15 -14 -18 -14 -13 0 -6 57 9 75 14 17 15 16 18 -14 2 -18 -2 -39 -9 -47z"/>
<path d="M1863 3513 c-7 -2 -13 -10 -13 -18 0 -7 -7 -18 -15 -25 -25 -21 -17
-46 23 -72 24 -16 41 -37 47 -59 6 -19 18 -35 28 -37 14 -3 17 4 17 36 0 24 8
49 20 65 l20 25 -23 15 c-17 12 -18 16 -6 16 11 1 17 10 17 25 0 19 -7 26 -27
29 -35 6 -73 6 -88 0z"/>
<path d="M2197 3483 c-4 -3 -7 -13 -7 -21 0 -12 3 -12 15 -2 8 7 15 16 15 21
0 11 -14 12 -23 2z"/>
<path d="M2195 3434 c-16 -12 -17 -15 -3 -10 9 3 19 0 21 -7 2 -7 8 -9 12 -5
4 3 3 14 -2 22 -8 15 -11 15 -28 0z"/>
<path d="M2816 3421 c-4 -5 -2 -12 3 -15 5 -4 12 -2 15 3 4 5 2 12 -3 15 -5 4
-12 2 -15 -3z"/>
<path d="M2220 3381 c0 -13 50 -100 62 -107 6 -4 9 -3 6 2 -2 5 -11 24 -18 42
-8 17 -18 32 -22 32 -4 0 -8 9 -8 20 0 11 -4 20 -10 20 -5 0 -10 -4 -10 -9z"/>
<path d="M1175 3340 c-18 -8 -17 -9 8 -9 15 -1 27 4 27 9 0 12 -8 12 -35 0z"/>
<path d="M2715 3300 c-3 -5 -1 -10 4 -10 6 0 11 5 11 10 0 6 -2 10 -4 10 -3 0
-8 -4 -11 -10z"/>
<path d="M1754 3283 c3 -6 -3 -32 -13 -57 -20 -45 -27 -151 -10 -140 5 3 9 17
9 32 0 15 7 56 14 92 10 45 11 68 4 75 -8 7 -9 6 -4 -2z"/>
<path d="M2308 3230 c22 -39 37 -39 17 0 -9 17 -20 30 -25 30 -5 0 -1 -13 8
-30z"/>
<path d="M1771 3209 c-6 -18 -9 -34 -7 -36 2 -2 9 10 15 28 6 18 9 34 7 36 -2
2 -9 -10 -15 -28z"/>
<path d="M1917 3180 c-3 -11 -1 -20 4 -20 5 0 9 9 9 20 0 11 -2 20 -4 20 -2 0
-6 -9 -9 -20z"/>
<path d="M2700 3179 c0 -5 5 -7 10 -4 6 3 10 8 10 11 0 2 -4 4 -10 4 -5 0 -10
-5 -10 -11z"/>
<path d="M2718 3108 c5 -5 16 -8 23 -6 8 3 3 7 -10 11 -17 4 -21 3 -13 -5z"/>
<path d="M2817 3033 c-4 -3 -7 -11 -7 -17 0 -6 5 -5 12 2 6 6 9 14 7 17 -3 3
-9 2 -12 -2z"/>
<path d="M1743 2985 c0 -22 2 -30 4 -17 2 12 2 30 0 40 -3 9 -5 -1 -4 -23z"/>
<path d="M1872 2870 c0 -19 2 -27 5 -17 2 9 2 25 0 35 -3 9 -5 1 -5 -18z"/>
<path d="M2095 2720 c-3 -5 -1 -10 4 -10 6 0 11 5 11 10 0 6 -2 10 -4 10 -3 0
-8 -4 -11 -10z"/>
<path d="M2107 2693 c-4 -3 -7 -11 -7 -17 0 -6 5 -5 12 2 6 6 9 14 7 17 -3 3
-9 2 -12 -2z"/>
<path d="M1041 2674 c0 -11 3 -14 6 -6 3 7 2 16 -1 19 -3 4 -6 -2 -5 -13z"/>
<path d="M3207 2649 c7 -7 15 -10 18 -7 3 3 -2 9 -12 12 -14 6 -15 5 -6 -5z"/>
<path d="M3287 2580 c3 -11 9 -17 15 -14 5 3 4 12 -3 20 -16 19 -18 18 -12 -6z"/>
<path d="M740 2520 c0 -5 5 -10 11 -10 5 0 7 5 4 10 -3 6 -8 10 -11 10 -2 0
-4 -4 -4 -10z"/>
<path d="M820 2510 c0 -5 5 -10 10 -10 6 0 10 5 10 10 0 6 -4 10 -10 10 -5 0
-10 -4 -10 -10z"/>
<path d="M3420 2471 c0 -10 19 -25 25 -20 1 2 -3 10 -11 17 -8 7 -14 8 -14 3z"/>
<path d="M3370 2431 c0 -5 5 -13 10 -16 6 -3 10 -2 10 4 0 5 -4 13 -10 16 -5
3 -10 2 -10 -4z"/>
<path d="M3426 2385 c-3 -8 -1 -15 4 -15 6 0 10 7 10 15 0 8 -2 15 -4 15 -2 0
-6 -7 -10 -15z"/>
<path d="M3411 2344 c0 -11 3 -14 6 -6 3 7 2 16 -1 19 -3 4 -6 -2 -5 -13z"/>
<path d="M3398 2295 c-3 -14 -1 -25 3 -25 5 0 9 11 9 25 0 14 -2 25 -4 25 -2
0 -6 -11 -8 -25z"/>
<path d="M690 2024 c0 -17 22 -14 28 4 2 7 -3 12 -12 12 -9 0 -16 -7 -16 -16z"/>
<path d="M3386 2012 c-2 -4 -1 -14 5 -22 7 -12 9 -10 9 8 0 23 -5 28 -14 14z"/>
<path d="M3413 1975 c0 -27 2 -38 4 -22 2 15 2 37 0 50 -2 12 -4 0 -4 -28z"/>
<path d="M1139 1988 c-6 -24 -6 -58 1 -58 13 0 32 39 25 50 -5 9 -24 14 -26 8z"/>
<path d="M3413 1855 c0 -38 2 -53 4 -32 2 20 2 52 0 70 -2 17 -4 1 -4 -38z"/>
<path d="M1150 1721 c0 -6 5 -13 10 -16 6 -3 10 1 10 9 0 9 -4 16 -10 16 -5 0
-10 -4 -10 -9z"/>
<path d="M678 1673 c7 -3 16 -2 19 1 4 3 -2 6 -13 5 -11 0 -14 -3 -6 -6z"/>
<path d="M3430 1401 c0 -27 3 -29 53 -35 28 -3 129 -10 222 -16 94 -6 198 -13
233 -16 l63 -6 -3 33 -3 34 -235 17 c-129 9 -256 17 -282 17 -46 1 -48 0 -48
-28z"/>
<path d="M3196 1109 c-46 -36 -70 -96 -70 -170 0 -54 6 -78 37 -142 32 -68 39
-77 63 -77 l28 0 -27 28 c-64 66 -84 174 -47 247 11 22 20 46 20 55 0 8 9 30
20 48 23 37 14 41 -24 11z"/>
<path d="M0 832 l0 -109 48 -7 c26 -3 59 -12 73 -19 16 -9 33 -11 47 -6 32 12
27 2 -7 -15 -24 -13 -30 -13 -34 -2 -3 7 -27 17 -52 21 -26 3 -54 9 -61 12
-21 8 -18 -34 4 -47 16 -11 16 -11 0 -6 -17 5 -18 -6 -18 -144 0 -138 6 -171
25 -139 4 5 17 14 28 20 12 5 78 45 147 90 l125 80 98 -6 c67 -4 97 -2 92 5
-3 5 -16 11 -28 11 -13 1 -7 4 13 8 22 4 35 12 34 21 -1 20 62 24 70 4 3 -8
10 -14 16 -14 8 0 8 6 0 20 -9 18 -8 20 15 20 16 0 24 4 19 11 -3 6 -16 8 -29
5 -18 -5 -25 0 -33 22 -23 61 -23 62 6 63 24 0 25 1 7 8 -11 5 -48 12 -82 16
-35 4 -63 10 -63 14 0 4 13 20 30 34 l30 27 172 -35 c95 -19 347 -64 560 -100
213 -36 416 -72 450 -80 72 -17 107 -19 92 -6 -5 5 -63 19 -129 31 -66 12
-192 37 -280 56 -88 18 -182 36 -210 40 -111 14 -424 65 -480 79 -33 7 -125
28 -205 45 -80 18 -154 37 -165 43 -17 9 -18 8 -7 -5 10 -13 9 -15 -10 -12
-60 10 -266 46 -285 51 -23 5 -23 4 -23 -105z m73 37 c-4 -15 0 -22 15 -26 11
-3 23 -11 25 -17 4 -9 21 -12 52 -9 25 3 52 0 59 -6 8 -7 46 -10 89 -9 42 1
79 0 82 -3 3 -3 -23 -18 -56 -33 -58 -26 -62 -26 -80 -10 -13 12 -19 13 -19 4
0 -10 -3 -10 -14 -1 -8 7 -17 8 -20 3 -9 -14 19 -33 38 -26 25 10 19 -11 -7
-23 -26 -12 -103 3 -130 25 -19 16 -51 118 -43 138 8 22 15 16 9 -7z m495
-194 c7 -14 12 -30 12 -34 0 -15 -32 -22 -46 -10 -11 9 -15 8 -20 -4 -5 -15
-44 -12 -44 4 0 5 7 6 16 2 12 -4 15 -1 12 13 -2 12 5 25 22 36 33 23 35 23
48 -7z m-503 5 c3 -5 -1 -10 -9 -10 -8 0 -18 5 -21 10 -3 6 1 10 9 10 8 0 18
-4 21 -10z m300 -31 l20 -8 -20 0 c-11 0 -36 7 -55 15 l-35 14 35 -6 c19 -4
44 -10 55 -15z m75 -9 c13 -8 13 -10 -2 -10 -9 0 -20 5 -23 10 -8 13 5 13 25
0z"/>
<path d="M235 930 c27 -12 43 -12 25 0 -8 5 -22 9 -30 9 -10 0 -8 -3 5 -9z"/>
<path d="M2500 931 c0 -11 92 -101 104 -101 5 0 3 7 -4 15 -11 13 -10 14 4 9
34 -13 14 12 -38 49 -57 39 -66 43 -66 28z"/>
<path d="M2206 896 c3 -8 13 -17 22 -21 13 -5 13 -2 -3 15 -21 24 -26 25 -19
6z"/>
<path d="M3465 756 c7 -82 9 -80 -52 -76 -30 1 -113 -33 -113 -48 0 -4 -9 -13
-20 -20 -17 -10 -25 -9 -49 9 -25 19 -50 23 -203 31 -139 8 -179 14 -203 29
-16 10 -45 25 -62 33 -18 8 -33 22 -33 30 0 9 -7 12 -20 9 -11 -3 -28 1 -38 8
-25 20 -16 9 79 -88 89 -92 118 -134 121 -178 1 -14 15 -39 30 -55 15 -17 25
-37 22 -45 -5 -11 1 -15 22 -15 32 0 28 -8 -7 -13 -20 -3 -24 -10 -26 -41 -1
-35 1 -37 23 -32 14 4 24 2 24 -4 0 -5 -16 -10 -36 -10 -29 0 -35 -3 -30 -16
3 -9 6 -18 6 -20 0 -2 9 -4 21 -4 11 0 18 4 14 9 -3 6 7 8 22 7 16 -2 39 -4
53 -5 20 -1 22 -3 10 -11 -8 -6 -28 -8 -45 -5 l-30 5 30 -14 c50 -23 75 -28
75 -17 0 6 -7 11 -16 11 -14 0 -14 2 0 15 23 23 113 18 276 -14 103 -21 148
-27 157 -19 9 7 13 7 13 -1 0 -7 5 -9 12 -5 14 9 112 8 181 -2 40 -6 50 -4 62
12 16 21 21 154 6 154 -5 0 -8 8 -6 18 1 9 0 11 -2 4 -6 -17 -33 -12 -44 8 -5
8 -14 35 -20 60 -7 25 -14 39 -16 33 -8 -23 -23 -13 -23 15 0 18 3 23 9 14 6
-11 10 -10 15 4 8 21 14 17 -66 43 -92 30 -101 53 -10 25 6 -2 12 1 12 5 0 5
8 7 18 5 20 -6 61 21 49 32 -4 4 -43 10 -86 13 -44 4 -82 9 -85 12 -3 3 1 20
10 37 14 29 14 34 0 54 -9 12 -16 35 -16 50 0 15 -5 30 -11 34 -9 5 -10 -14
-4 -70z m-485 -151 c-32 -24 -50 -31 -50 -20 0 7 63 45 74 45 6 0 -5 -11 -24
-25z m47 -41 c-3 -3 -12 -4 -19 -1 -8 3 -5 6 6 6 11 1 17 -2 13 -5z m541 -27
c24 -10 27 -14 16 -25 -7 -6 -18 -12 -24 -12 -6 0 -8 -4 -5 -10 3 -5 -1 -10
-10 -10 -9 0 -19 -9 -22 -19 -6 -23 -42 -32 -148 -36 -46 -2 -81 -8 -83 -14
-5 -15 -52 -14 -52 2 -1 7 -7 4 -15 -7 -10 -14 -21 -17 -41 -12 -36 9 -74 36
-54 37 19 1 -29 17 -55 18 -16 1 -17 -1 -5 -9 13 -8 12 -10 -2 -10 -10 0 -18
5 -18 10 0 6 -3 9 -7 9 -22 -4 -43 2 -43 11 0 7 29 8 80 5 l80 -6 30 33 c29
32 32 33 113 32 101 0 179 -7 169 -14 -14 -9 -11 -50 3 -50 8 0 17 15 21 38
10 53 23 60 72 39z m-408 -1 c0 -11 -19 -15 -25 -6 -3 5 1 10 9 10 9 0 16 -2
16 -4z m-32 -55 c3 -8 -1 -12 -9 -9 -7 2 -15 10 -17 17 -3 8 1 12 9 9 7 -2 15
-10 17 -17z m478 -16 c-9 -9 -16 -13 -16 -8 0 12 22 34 28 28 2 -2 -3 -11 -12
-20z"/>
<path d="M3767 803 c-3 -10 -8 -31 -12 -47 -5 -25 -4 -27 8 -14 18 18 32 78
18 78 -5 0 -12 -8 -14 -17z"/>
<path d="M2620 806 c0 -2 8 -10 18 -17 15 -13 16 -12 3 4 -13 16 -21 21 -21
13z"/>
<path d="M3877 783 c4 -11 3 -14 -6 -9 -6 4 -23 1 -36 -8 -13 -9 -31 -16 -39
-16 -21 0 -63 -54 -71 -91 -11 -47 8 -56 42 -21 25 26 31 28 46 17 12 -8 14
-15 8 -20 -6 -3 -11 -1 -11 4 0 7 -7 7 -20 -1 -11 -7 -20 -19 -20 -26 0 -8 5
-10 13 -5 6 4 18 8 25 9 18 3 22 8 27 33 2 12 -1 21 -8 21 -7 1 0 8 16 16 15
8 27 22 27 30 0 8 4 12 10 9 5 -3 7 0 4 9 -3 8 -1 23 5 34 8 15 7 21 -4 25
-10 4 -12 1 -8 -10z"/>
<path d="M672 730 c68 -12 176 -49 225 -77 71 -41 119 -113 76 -113 -40 1
-152 30 -207 54 -68 30 -94 34 -51 8 49 -30 136 -59 200 -67 85 -10 92 -16 63
-50 l-24 -27 -17 26 c-17 26 -54 35 -73 17 -5 -5 -34 -16 -64 -25 -30 -10 -60
-19 -67 -22 -6 -3 -19 9 -29 27 -17 33 -44 66 -44 54 0 -4 12 -26 26 -51 14
-24 24 -44 22 -44 -1 0 -55 -2 -118 -4 -129 -4 -190 -18 -224 -53 -28 -28 -36
-51 -25 -78 6 -17 8 -16 8 8 2 69 98 111 236 105 l67 -3 -57 -32 c-39 -23 -70
-33 -99 -33 -68 0 -104 -38 -76 -80 8 -11 9 -9 5 11 -9 37 12 49 89 53 39 2
75 10 90 20 14 9 31 16 37 16 7 0 9 3 6 7 -9 9 52 45 63 38 6 -3 7 1 3 11 -5
14 -2 16 20 10 14 -3 38 -1 54 6 42 17 53 18 105 7 l48 -11 0 -85 0 -85 -80
67 c-44 37 -80 61 -80 53 0 -7 29 -37 65 -66 36 -29 65 -57 65 -62 0 -12 -202
-76 -265 -85 -71 -9 -143 10 -182 47 -25 24 -31 27 -28 12 2 -11 4 -22 4 -25
1 -3 13 -11 28 -18 22 -10 24 -14 12 -22 -11 -7 -11 -9 4 -9 10 0 30 -8 44
-18 15 -9 24 -11 20 -4 -5 7 -3 12 7 12 8 0 18 -4 21 -10 3 -6 15 -10 26 -10
10 0 19 -4 19 -9 0 -4 -11 -6 -25 -3 -35 6 -32 -15 5 -36 16 -9 29 -23 27 -31
-4 -24 20 -23 43 1 l22 23 -4 -32 c-2 -18 -1 -30 4 -27 4 3 8 18 8 34 0 30 19
43 48 33 16 -6 16 -5 0 13 -17 17 -19 17 -47 -4 -35 -26 -44 -27 -60 -8 -9 11
-6 17 14 30 14 9 25 22 25 30 0 14 211 87 265 91 17 2 38 6 48 10 9 4 62 3
117 -2 72 -6 100 -5 100 3 0 6 11 31 23 57 13 25 20 48 16 49 -5 2 1 23 11 47
23 50 25 72 8 89 -20 20 -32 13 -13 -8 17 -18 15 -23 -35 -125 -46 -95 -54
-106 -73 -100 -12 3 -57 9 -99 12 -87 7 -82 0 -93 113 -7 64 -6 66 19 78 14 6
28 23 32 37 7 27 20 30 74 16 19 -5 60 -12 90 -15 l55 -6 -36 14 c-20 8 -67
17 -104 21 -60 7 -67 10 -76 34 -33 86 -215 183 -338 180 l-46 -1 47 -8z m248
-234 c0 -2 3 -11 6 -20 5 -12 0 -16 -17 -16 -13 0 -31 5 -39 10 -13 9 -13 11
0 20 15 10 50 14 50 6z"/>
<path d="M3078 733 c7 -3 16 -2 19 1 4 3 -2 6 -13 5 -11 0 -14 -3 -6 -6z"/>
<path d="M2125 710 c10 -11 20 -20 23 -20 3 0 -3 9 -13 20 -10 11 -20 20 -23
20 -3 0 3 -9 13 -20z"/>
<path d="M3837 622 c-11 -12 -15 -26 -10 -38 6 -16 4 -17 -8 -7 -17 14 -83 1
-105 -21 -13 -13 -8 -140 5 -134 3 2 23 14 43 28 35 23 37 28 31 63 -6 37 -1
42 34 38 6 -1 14 8 18 19 4 11 17 28 31 36 27 18 31 31 9 31 -8 0 -12 -4 -9
-9 3 -4 1 -8 -5 -8 -5 0 -11 5 -13 11 -2 6 -11 2 -21 -9z"/>
<path d="M2026 579 c3 -5 20 -16 37 -25 32 -17 32 -17 14 4 -18 20 -62 38 -51
21z"/>
<path d="M1985 456 c17 -14 26 -26 20 -26 -5 0 -3 -5 5 -11 11 -7 -11 -9 -77
-7 -51 2 -93 2 -93 -1 1 -24 22 -31 91 -31 109 1 119 1 119 -9 0 -6 -9 -13
-21 -16 -31 -10 -17 -29 29 -38 29 -6 51 -4 77 8 21 8 49 15 64 15 18 0 35 11
55 37 21 26 24 35 12 30 -9 -4 -15 -3 -11 2 3 5 1 12 -5 16 -5 3 -10 2 -10 -2
0 -5 -33 -5 -72 -1 -40 5 -82 9 -93 9 -29 0 -50 20 -33 31 9 7 6 8 -11 5 -13
-3 -35 -1 -50 4 -26 10 -26 10 4 -15z m135 -66 c-19 -13 -30 -13 -30 0 0 6 10
10 23 10 18 0 19 -2 7 -10z"/>
<path d="M3784 432 c4 -7 1 -12 -8 -12 -8 0 -18 -4 -21 -10 -9 -14 8 -12 30 3
14 11 15 16 5 22 -9 5 -11 4 -6 -3z"/>
<path d="M1820 390 c0 -6 -4 -9 -9 -6 -12 8 -93 -72 -88 -87 7 -23 24 -16 40
19 11 22 29 40 47 47 31 12 37 21 20 32 -5 3 -10 1 -10 -5z"/>
<path d="M1844 343 c7 -7 108 -5 115 3 2 2 -24 4 -59 4 -35 0 -60 -3 -56 -7z"/>
<path d="M1880 304 c0 -26 28 -94 49 -120 14 -18 37 -50 50 -72 13 -22 38 -47
55 -56 17 -9 22 -14 11 -10 -11 4 -28 7 -37 8 -9 0 -15 2 -14 4 2 2 -14 22
-36 45 -21 23 -53 61 -69 85 -33 47 -40 51 -32 23 3 -10 0 -22 -6 -25 -16 -10
-13 -52 4 -66 8 -7 15 -28 15 -46 0 -62 24 -74 145 -74 98 0 105 1 105 20 0
13 5 18 15 14 9 -4 15 0 15 10 0 13 -5 14 -27 5 l-28 -10 24 25 c17 18 21 30
16 48 -11 35 -44 78 -60 78 -8 0 -12 6 -10 13 6 15 -41 67 -61 67 -8 0 -24 -4
-34 -10 -15 -8 -23 -4 -40 20 -19 26 -50 41 -50 24z m32 -216 c-7 -7 -12 -8
-12 -2 0 14 12 26 19 19 2 -3 -1 -11 -7 -17z m48 -28 c0 -5 -7 -10 -15 -10 -8
0 -15 5 -15 10 0 6 7 10 15 10 8 0 15 -4 15 -10z m0 -34 c-4 -4 -16 -4 -26 2
-16 9 -14 10 8 9 15 -1 23 -6 18 -11z"/>
<path d="M3052 150 c-12 -12 -22 -22 -22 -24 0 -1 20 -2 45 -2 29 1 47 -4 50
-12 8 -22 6 -34 -5 -27 -5 3 -10 1 -10 -5 0 -6 12 -10 28 -8 25 3 27 6 25 42
-2 22 -4 41 -6 42 -2 2 -21 6 -43 9 -31 4 -45 0 -62 -15z"/>
<path d="M2965 150 c-3 -5 1 -10 9 -10 9 0 16 5 16 10 0 6 -4 10 -9 10 -6 0
-13 -4 -16 -10z"/>
<path d="M775 110 c-3 -5 1 -10 9 -10 9 0 16 5 16 10 0 6 -4 10 -9 10 -6 0
-13 -4 -16 -10z"/>
<path d="M2740 100 c0 -5 5 -10 11 -10 5 0 7 5 4 10 -3 6 -8 10 -11 10 -2 0
-4 -4 -4 -10z"/>
<path d="M3040 89 c0 -5 4 -8 9 -5 5 4 11 1 13 -6 3 -7 12 -9 23 -4 16 6 17 9
5 16 -20 13 -50 12 -50 -1z"/>
<path d="M804 48 c-4 -5 -12 -7 -20 -4 -8 3 -14 -1 -14 -10 0 -8 6 -14 13 -13
25 3 38 -1 32 -11 -3 -6 4 -10 16 -10 22 0 22 0 3 21 -19 22 -19 22 2 11 16
-9 26 -8 40 3 18 13 18 14 -6 19 -34 7 -60 4 -66 -6z"/>
<path d="M1000 10 c-12 -8 -10 -10 8 -10 13 0 20 4 17 10 -7 12 -6 12 -25 0z"/>
</g>
</svg>
